<svg width="198" height="40" viewBox="0 0 198 40" fill="none" xmlns="http://www.w3.org/2000/svg">
<path d="M132.758 18.6094C133.533 18.7734 134.212 19.0879 134.795 19.5527C135.378 20.0085 135.829 20.5736 136.148 21.248C136.467 21.9134 136.627 22.6289 136.627 23.3945C136.627 24.5794 136.363 25.5957 135.834 26.4434C135.305 27.2819 134.562 27.9199 133.605 28.3574C132.648 28.7858 131.532 29 130.256 29H124.24H123.529V9.09375H129.408C131.486 9.09375 133.086 9.52214 134.207 10.3789C135.337 11.2266 135.902 12.5299 135.902 14.2891C135.902 15.3099 135.624 16.2031 135.068 16.9688C134.512 17.7344 133.742 18.2812 132.758 18.6094ZM125.211 10.5293V18.0078H129.572C131.058 18.0078 132.202 17.6888 133.004 17.0508C133.806 16.4128 134.207 15.4831 134.207 14.2617C134.207 12.9948 133.806 12.056 133.004 11.4453C132.211 10.8346 131.012 10.5293 129.408 10.5293H125.211ZM130.256 27.5781C131.222 27.5781 132.056 27.4141 132.758 27.0859C133.46 26.7487 133.997 26.2702 134.371 25.6504C134.745 25.0215 134.932 24.2786 134.932 23.4219C134.932 22.6471 134.763 21.959 134.426 21.3574C134.098 20.7559 133.592 20.2819 132.908 19.9355C132.225 19.5892 131.382 19.416 130.379 19.416H125.211V27.5781H130.256ZM139.416 21.3848C139.416 19.9538 139.689 18.6732 140.236 17.543C140.783 16.4128 141.553 15.5286 142.547 14.8906C143.549 14.2526 144.702 13.9336 146.006 13.9336C147.318 13.9336 148.476 14.2526 149.479 14.8906C150.481 15.5286 151.256 16.4128 151.803 17.543C152.35 18.6732 152.623 19.9538 152.623 21.3848V21.8223C152.623 23.2533 152.35 24.5339 151.803 25.6641C151.256 26.7943 150.486 27.6784 149.492 28.3164C148.499 28.9544 147.346 29.2734 146.033 29.2734C144.721 29.2734 143.563 28.9544 142.561 28.3164C141.558 27.6784 140.783 26.7943 140.236 25.6641C139.689 24.5339 139.416 23.2533 139.416 21.8223V21.3848ZM141.057 21.8223C141.057 22.9251 141.248 23.9368 141.631 24.8574C142.023 25.778 142.592 26.5117 143.34 27.0586C144.096 27.6055 144.994 27.8789 146.033 27.8789C147.063 27.8789 147.952 27.6055 148.699 27.0586C149.447 26.5117 150.012 25.778 150.395 24.8574C150.786 23.9368 150.982 22.9251 150.982 21.8223V21.3848C150.982 20.3001 150.786 19.2975 150.395 18.377C150.003 17.4564 149.428 16.7181 148.672 16.1621C147.924 15.6061 147.036 15.3281 146.006 15.3281C144.976 15.3281 144.087 15.6061 143.34 16.1621C142.592 16.7181 142.023 17.4564 141.631 18.377C141.248 19.2975 141.057 20.3001 141.057 21.3848V21.8223ZM155.111 21.3848C155.111 19.9538 155.385 18.6732 155.932 17.543C156.479 16.4128 157.249 15.5286 158.242 14.8906C159.245 14.2526 160.398 13.9336 161.701 13.9336C163.014 13.9336 164.171 14.2526 165.174 14.8906C166.176 15.5286 166.951 16.4128 167.498 17.543C168.045 18.6732 168.318 19.9538 168.318 21.3848V21.8223C168.318 23.2533 168.045 24.5339 167.498 25.6641C166.951 26.7943 166.181 27.6784 165.188 28.3164C164.194 28.9544 163.041 29.2734 161.729 29.2734C160.416 29.2734 159.258 28.9544 158.256 28.3164C157.253 27.6784 156.479 26.7943 155.932 25.6641C155.385 24.5339 155.111 23.2533 155.111 21.8223V21.3848ZM156.752 21.8223C156.752 22.9251 156.943 23.9368 157.326 24.8574C157.718 25.778 158.288 26.5117 159.035 27.0586C159.792 27.6055 160.689 27.8789 161.729 27.8789C162.758 27.8789 163.647 27.6055 164.395 27.0586C165.142 26.5117 165.707 25.778 166.09 24.8574C166.482 23.9368 166.678 22.9251 166.678 21.8223V21.3848C166.678 20.3001 166.482 19.2975 166.09 18.377C165.698 17.4564 165.124 16.7181 164.367 16.1621C163.62 15.6061 162.731 15.3281 161.701 15.3281C160.671 15.3281 159.783 15.6061 159.035 16.1621C158.288 16.7181 157.718 17.4564 157.326 18.377C156.943 19.2975 156.752 20.3001 156.752 21.3848V21.8223ZM175.209 21.5488L173.336 23.3398V29H171.709V8H173.336V21.4258L174.881 19.7578L180.555 14.207H182.619L176.344 20.4414L183.166 29H181.197L175.209 21.5488ZM190.33 22.1094C189.163 21.8633 188.206 21.5716 187.459 21.2344C186.721 20.8971 186.156 20.4642 185.764 19.9355C185.372 19.4069 185.176 18.7461 185.176 17.9531C185.176 17.2148 185.39 16.5404 185.818 15.9297C186.247 15.319 186.853 14.8359 187.637 14.4805C188.43 14.1159 189.346 13.9336 190.385 13.9336C191.506 13.9336 192.477 14.125 193.297 14.5078C194.126 14.8815 194.76 15.4056 195.197 16.0801C195.635 16.7454 195.854 17.502 195.854 18.3496H194.199C194.199 17.8301 194.049 17.3379 193.748 16.873C193.447 16.4082 193.005 16.0345 192.422 15.752C191.848 15.4694 191.169 15.3281 190.385 15.3281C189.574 15.3281 188.899 15.4512 188.361 15.6973C187.833 15.9434 187.441 16.2624 187.186 16.6543C186.93 17.0462 186.803 17.4609 186.803 17.8984C186.803 18.3724 186.903 18.7734 187.104 19.1016C187.313 19.4297 187.705 19.7305 188.279 20.0039C188.854 20.2773 189.678 20.5371 190.754 20.7832C191.975 21.0658 192.96 21.3984 193.707 21.7812C194.464 22.1549 195.024 22.6152 195.389 23.1621C195.753 23.6999 195.936 24.3607 195.936 25.1445C195.936 25.9466 195.708 26.6621 195.252 27.291C194.805 27.9199 194.167 28.4076 193.338 28.7539C192.518 29.1003 191.565 29.2734 190.48 29.2734C189.277 29.2734 188.238 29.0729 187.363 28.6719C186.488 28.2617 185.823 27.7194 185.367 27.0449C184.911 26.3613 184.684 25.6276 184.684 24.8438H186.311C186.383 25.9102 186.821 26.6849 187.623 27.168C188.434 27.6419 189.387 27.8789 190.48 27.8789C191.283 27.8789 191.971 27.7559 192.545 27.5098C193.119 27.2637 193.552 26.9401 193.844 26.5391C194.145 26.138 194.295 25.7005 194.295 25.2266C194.295 24.5247 194.012 23.9095 193.447 23.3809C192.882 22.8522 191.843 22.4284 190.33 22.1094Z" fill="white"/>
<path fill-rule="evenodd" clip-rule="evenodd" d="M98.633 18.285C99.3099 18.434 99.9932 18.6438 100.683 18.9172C101.371 19.1905 101.994 19.5507 102.551 19.9963C103.107 20.4433 103.554 20.9886 103.892 21.6338C104.231 22.2802 104.4 23.0485 104.4 23.941C104.4 25.1083 104.171 26.0941 103.712 26.9012C103.251 27.707 102.653 28.3586 101.916 28.8548C101.178 29.3509 100.35 29.7111 99.4311 29.9339C98.5119 30.158 97.5926 30.2681 96.6746 30.2681C95.1984 30.2681 93.3638 29.9572 92.0526 29.2356C90.6189 28.4467 90.1058 27.9933 89.6094 27.4142C89.3799 27.146 89.318 26.7768 89.5578 26.5177L91.3035 24.0434C91.533 23.7946 91.9224 23.555 92.1995 23.7493C92.8184 24.1846 93.5546 24.7248 94.1322 25.0202C95.3144 25.6264 96.8048 25.8752 98.031 25.2611C98.5028 25.0266 98.7285 24.5629 98.7027 24.1898C98.6653 23.6211 98.4152 23.2842 97.835 23.0109C97.2548 22.7388 96.3484 22.4525 95.1146 22.1546C94.4854 22.0069 93.8563 21.8087 93.2284 21.56C92.5992 21.3112 92.0371 20.977 91.542 20.5547C91.0456 20.1336 90.6408 19.6116 90.3262 18.991C90.0116 18.3718 89.8543 17.6269 89.8543 16.7589C89.8543 15.6422 90.0838 14.6926 90.5441 13.9115C91.0031 13.129 91.5962 12.4916 92.322 11.9942C93.0466 11.498 93.8511 11.1327 94.733 10.8969C95.6161 10.6611 96.4928 10.5432 97.3631 10.5432C98.7181 10.5432 99.8914 10.7285 101.168 11.2648C102.257 11.7221 102.794 12.0214 103.588 12.6704C103.866 12.8984 103.892 13.3181 103.644 13.5811L101.836 16.0283C101.605 16.3275 101.249 16.3081 100.969 16.1475C100.51 15.8858 100.211 15.7096 99.7986 15.4945C99.377 15.2743 98.9257 15.1085 98.459 15.0204C97.5539 14.8494 96.743 14.8753 96.0339 15.2108C95.562 15.4349 95.3325 15.878 95.3325 16.4234C95.3325 16.9442 95.5916 17.3173 96.1125 17.5401C96.6321 17.7629 97.4727 18.0117 98.633 18.285ZM81.5604 32.4653C81.0576 33.7335 80.6089 34.4668 80.1164 35.1948C78.3901 37.7508 75.1566 38.3687 72.5716 37.8104C71.3596 37.4567 70.3888 37.0461 69.8911 36.4657C69.6617 36.1988 69.6011 35.8296 69.8396 35.5705L71.3648 32.8345C71.5943 32.5857 71.9836 32.3448 72.2596 32.5391C72.5393 32.736 73.1827 33.0301 73.6636 33.0301C74.3856 32.9886 75.2507 32.9537 76.1197 30.9496C76.4923 29.9689 76.4794 29.3108 75.9301 27.8676L69.3638 11.9942C69.1949 11.5874 69.4928 11.1379 69.9311 11.1379H75.1707C75.4338 11.1379 75.6684 11.3063 75.7535 11.5576L79.6368 23.0485H79.7464L83.2055 11.577C83.2842 11.3166 83.5227 11.1379 83.7934 11.1379H88.3743C88.8049 11.1379 89.1014 11.5718 88.948 11.9773L81.5604 32.4653ZM65.3787 28.8548C64.6412 29.3509 63.8122 29.7111 62.8942 29.9339C61.975 30.158 61.0557 30.2681 60.1365 30.2681C58.6615 30.2681 56.8269 29.9572 55.5157 29.2356C54.0807 28.4467 53.5689 27.9933 53.0725 27.4142C52.843 27.146 52.7811 26.7768 53.0196 26.5177L54.7666 24.0434C54.9961 23.7946 55.3855 23.555 55.6614 23.7493C56.2815 24.1846 57.0177 24.7248 57.594 25.0202C58.7776 25.6264 60.2667 25.8752 61.4941 25.2611C61.9659 25.0266 62.1916 24.5629 62.1658 24.1898C62.1284 23.6211 61.8783 23.2842 61.2981 23.0109C60.7179 22.7388 59.8103 22.4525 58.5777 22.1546C57.9486 22.0069 57.3194 21.8087 56.6915 21.56C56.0623 21.3112 55.5002 20.977 55.0051 20.5547C54.5088 20.1336 54.1039 19.6116 53.7893 18.991C53.4748 18.3718 53.3175 17.6269 53.3175 16.7589C53.3175 15.6422 53.547 14.6926 54.0072 13.9115C54.4662 13.129 55.0593 12.4916 55.7851 11.9942C56.5097 11.498 57.3129 11.1327 58.1961 10.8969C59.0793 10.6611 59.956 10.5432 60.8262 10.5432C62.18 10.5432 63.3545 10.7285 64.6309 11.2648C65.7203 11.7221 66.2567 12.0214 67.0509 12.6704C67.3281 12.8984 67.3551 13.3181 67.1076 13.5811L65.2987 16.0283C65.0667 16.3275 64.7121 16.3081 64.4323 16.1475C63.9734 15.8858 63.673 15.7096 63.2617 15.4945C62.8401 15.2743 62.3888 15.1085 61.9221 15.0204C61.017 14.8494 60.2061 14.8753 59.497 15.2108C59.0251 15.4349 58.7956 15.878 58.7956 16.4234C58.7956 16.9442 59.0548 17.3173 59.5743 17.5401C60.0952 17.7629 60.9358 18.0117 62.0962 18.285C62.773 18.434 63.4564 18.6438 64.1448 18.9172C64.8346 19.1905 65.4573 19.5507 66.0143 19.9963C66.57 20.4433 67.0161 20.9886 67.3551 21.6338C67.6942 22.2802 67.8631 23.0485 67.8631 23.941C67.8631 25.1083 67.6336 26.0941 67.1746 26.9012C66.7144 27.707 66.1161 28.3586 65.3787 28.8548ZM49.1479 29.6735H44.9359C44.5955 29.6735 44.3209 29.3963 44.3209 29.0556V27.7005H44.2126C43.7523 28.47 43.0574 29.0659 42.1265 29.487C41.1957 29.9093 40.1862 30.1204 39.098 30.1204C38.3721 30.1204 37.6218 30.0207 36.8482 29.8225C36.0746 29.6243 35.3668 29.3017 34.7261 28.8548C34.0853 28.4078 33.5593 27.8119 33.148 27.0683C32.7367 26.3234 32.5317 25.4062 32.5317 24.3141C32.5317 22.9746 32.8888 21.8942 33.6018 21.0754C34.3148 20.2567 35.234 19.6245 36.3596 19.1776C37.4838 18.7319 38.7344 18.434 40.1127 18.285C41.4909 18.136 42.833 18.0609 44.1391 18.0609V17.7629C44.1391 16.8457 43.8245 16.1695 43.1966 15.7342C42.5675 15.3015 41.7939 15.0839 40.8746 15.0839C40.0276 15.0839 39.2115 15.2691 38.4263 15.6422C37.8345 15.922 37.0132 16.3923 36.5517 16.7576C36.299 16.9571 35.938 16.9286 35.7214 16.689L33.9564 14.291C33.7217 14.032 33.7475 13.6291 34.0118 13.3998C34.9659 12.572 35.4893 12.0784 37.1202 11.3244C38.4895 10.6909 39.9799 10.5432 41.4548 10.5432C42.9787 10.5432 44.2667 10.735 45.3188 11.1197C46.3708 11.5045 47.223 12.1004 47.8754 12.9062C48.5291 13.7133 49.0061 14.7302 49.3091 15.9583C49.6108 17.1864 49.7616 18.6438 49.7616 20.3318V29.0556C49.7616 29.3963 49.487 29.6735 49.1479 29.6735ZM44.3209 21.9952C44.3209 21.775 44.143 21.5962 43.9251 21.5962H43.5589C42.9065 21.5962 42.2464 21.6286 41.5824 21.6895C40.9172 21.7517 40.3241 21.8709 39.8045 22.0432C39.285 22.2181 38.8556 22.4707 38.5178 22.8062C38.1787 23.1417 38.0099 23.5822 38.0099 24.1276C38.0099 24.4761 38.0872 24.7727 38.2458 25.0215C38.4018 25.2689 38.6016 25.4684 38.844 25.6161C39.0851 25.7651 39.3636 25.8713 39.6782 25.9335C39.9915 25.9944 40.2945 26.0255 40.5845 26.0255C41.7939 26.0255 42.7183 25.6847 43.3591 25.002C43.9998 24.3206 44.3209 23.3956 44.3209 22.2297V21.9952ZM26.8937 27.5476C25.9744 28.4039 24.9108 29.0685 23.7014 29.5401C22.4921 30.0103 21.1989 30.2461 19.8194 30.2461C18.4657 30.2461 17.1777 30.0103 15.9567 29.5401C14.7358 29.0685 13.6721 28.4039 12.7645 27.5476C11.8581 26.6913 11.1387 25.6498 10.6062 24.4217C10.0737 23.1935 9.80816 21.8229 9.80816 20.3085C9.80816 18.7954 10.0737 17.4313 10.6062 16.2148C11.1387 14.9997 11.8581 13.9698 12.7645 13.1251C13.6721 12.2818 14.7358 11.6366 15.9567 11.1897C17.1777 10.744 18.4657 10.5199 19.8194 10.5199C21.1989 10.5199 22.4921 10.744 23.7014 11.1897C24.9108 11.6366 25.9744 12.2818 26.8937 13.1251C27.8117 13.9698 28.5375 14.9997 29.07 16.2148C29.6012 17.4313 29.8681 18.7954 29.8681 20.3085C29.8681 21.8229 29.6012 23.1935 29.07 24.4217C28.5375 25.6498 27.8117 26.6913 26.8937 27.5476ZM19.8375 15.5684C17.2228 15.5684 15.1032 17.7007 15.1032 20.3318C15.1032 22.5031 16.5575 24.3141 18.5314 24.888C18.9375 25.0202 19.3695 25.1096 19.8568 25.1096C20.4486 25.1096 20.9656 24.9917 21.4375 24.796C23.2618 24.1341 24.573 22.3942 24.573 20.3318C24.573 17.7007 22.4534 15.5684 19.8375 15.5684ZM2.88989 9.16874C1.48328 8.89928 0.333244 7.74113 0.0663636 6.32517C-0.411959 3.77697 1.76692 1.58503 4.29907 2.06695C5.70567 2.33511 6.857 3.49197 7.12517 4.90792C7.60865 7.45742 5.4259 9.65454 2.88989 9.16874ZM1.17901 11.1379H5.89906C6.23814 11.1379 6.51405 11.4151 6.51405 11.7571V29.0556C6.51405 29.3963 6.23814 29.6735 5.89906 29.6735H1.17901C0.839931 29.6735 0.564025 29.3963 0.564025 29.0556V11.7571C0.564025 11.4151 0.839931 11.1379 1.17901 11.1379Z" fill="white"/>
</svg>
