<svg width="288" height="40" viewBox="0 0 288 40" fill="none" xmlns="http://www.w3.org/2000/svg">
<path d="M136.613 23.3945C136.613 25.2083 136.025 26.5983 134.85 27.5645C133.683 28.5215 132.152 29 130.256 29H123.529V9.09375H129.408C131.423 9.09375 133.008 9.50846 134.166 10.3379C135.324 11.1673 135.902 12.4844 135.902 14.2891C135.902 15.3099 135.624 16.2031 135.068 16.9688C134.512 17.7344 133.742 18.2858 132.758 18.623C133.934 18.8691 134.868 19.4388 135.561 20.332C136.262 21.2161 136.613 22.237 136.613 23.3945ZM129.408 10.5293H125.211V18.0078H129.572C131.049 18.0078 132.188 17.6934 132.99 17.0645C133.801 16.4264 134.207 15.4876 134.207 14.248C134.207 11.7689 132.607 10.5293 129.408 10.5293ZM134.932 23.4219C134.932 22.2917 134.562 21.3438 133.824 20.5781C133.086 19.8034 131.938 19.416 130.379 19.416H125.211V27.5781H130.256C131.714 27.5781 132.858 27.209 133.688 26.4707C134.517 25.7233 134.932 24.707 134.932 23.4219ZM139.416 21.3848C139.416 19.9447 139.689 18.6641 140.236 17.543C140.783 16.4219 141.549 15.5423 142.533 14.9043C143.518 14.2572 144.675 13.9336 146.006 13.9336C147.346 13.9336 148.508 14.2572 149.492 14.9043C150.486 15.5423 151.256 16.4219 151.803 17.543C152.35 18.6641 152.623 19.9447 152.623 21.3848V21.8359C152.623 23.2669 152.35 24.543 151.803 25.6641C151.265 26.7852 150.499 27.6693 149.506 28.3164C148.521 28.9544 147.364 29.2734 146.033 29.2734C144.693 29.2734 143.527 28.9544 142.533 28.3164C141.549 27.6693 140.783 26.7852 140.236 25.6641C139.689 24.543 139.416 23.2669 139.416 21.8359V21.3848ZM141.057 21.8359C141.057 22.9115 141.248 23.9095 141.631 24.8301C142.014 25.7507 142.574 26.4935 143.312 27.0586C144.051 27.6146 144.958 27.8926 146.033 27.8926C147.1 27.8926 147.997 27.6146 148.727 27.0586C149.465 26.4935 150.025 25.7507 150.408 24.8301C150.791 23.9095 150.982 22.9115 150.982 21.8359V21.3848C150.982 20.3184 150.791 19.3249 150.408 18.4043C150.025 17.4837 149.465 16.7409 148.727 16.1758C147.988 15.6016 147.081 15.3145 146.006 15.3145C144.939 15.3145 144.037 15.6016 143.299 16.1758C142.561 16.7409 142 17.4837 141.617 18.4043C141.243 19.3249 141.057 20.3184 141.057 21.3848V21.8359ZM155.111 21.3848C155.111 19.9447 155.385 18.6641 155.932 17.543C156.479 16.4219 157.244 15.5423 158.229 14.9043C159.213 14.2572 160.37 13.9336 161.701 13.9336C163.041 13.9336 164.203 14.2572 165.188 14.9043C166.181 15.5423 166.951 16.4219 167.498 17.543C168.045 18.6641 168.318 19.9447 168.318 21.3848V21.8359C168.318 23.2669 168.045 24.543 167.498 25.6641C166.96 26.7852 166.195 27.6693 165.201 28.3164C164.217 28.9544 163.059 29.2734 161.729 29.2734C160.389 29.2734 159.222 28.9544 158.229 28.3164C157.244 27.6693 156.479 26.7852 155.932 25.6641C155.385 24.543 155.111 23.2669 155.111 21.8359V21.3848ZM156.752 21.8359C156.752 22.9115 156.943 23.9095 157.326 24.8301C157.709 25.7507 158.27 26.4935 159.008 27.0586C159.746 27.6146 160.653 27.8926 161.729 27.8926C162.795 27.8926 163.693 27.6146 164.422 27.0586C165.16 26.4935 165.721 25.7507 166.104 24.8301C166.486 23.9095 166.678 22.9115 166.678 21.8359V21.3848C166.678 20.3184 166.486 19.3249 166.104 18.4043C165.721 17.4837 165.16 16.7409 164.422 16.1758C163.684 15.6016 162.777 15.3145 161.701 15.3145C160.635 15.3145 159.732 15.6016 158.994 16.1758C158.256 16.7409 157.695 17.4837 157.312 18.4043C156.939 19.3249 156.752 20.3184 156.752 21.3848V21.8359ZM173.336 29H171.709V8H173.336V21.4258L174.895 19.7715L180.541 14.207H182.619L176.344 20.4414L183.166 29H181.197L175.209 21.5488L173.336 23.3398V29ZM194.295 25.2266C194.295 24.8255 194.19 24.429 193.98 24.0371C193.78 23.6452 193.397 23.2852 192.832 22.957C192.267 22.6289 191.433 22.3464 190.33 22.1094C188.689 21.763 187.418 21.2891 186.516 20.6875C185.622 20.0768 185.176 19.1654 185.176 17.9531C185.176 17.224 185.385 16.554 185.805 15.9434C186.233 15.3327 186.835 14.8451 187.609 14.4805C188.393 14.1159 189.318 13.9336 190.385 13.9336C192.098 13.9336 193.438 14.3529 194.404 15.1914C195.37 16.0299 195.854 17.0827 195.854 18.3496H194.199C194.199 17.584 193.871 16.8867 193.215 16.2578C192.559 15.6289 191.615 15.3145 190.385 15.3145C189.537 15.3145 188.849 15.4466 188.32 15.7109C187.792 15.9661 187.404 16.2943 187.158 16.6953C186.921 17.0872 186.803 17.4883 186.803 17.8984C186.803 18.3359 186.903 18.7279 187.104 19.0742C187.304 19.4115 187.687 19.7168 188.252 19.9902C188.817 20.2637 189.651 20.528 190.754 20.7832C192.54 21.1934 193.848 21.7311 194.678 22.3965C195.516 23.0527 195.936 23.9688 195.936 25.1445C195.936 26.3659 195.439 27.3594 194.445 28.125C193.461 28.8906 192.135 29.2734 190.467 29.2734C189.218 29.2734 188.161 29.0684 187.295 28.6582C186.438 28.2389 185.786 27.6921 185.34 27.0176C184.902 26.3431 184.684 25.6185 184.684 24.8438H186.311C186.365 25.6185 186.607 26.2292 187.035 26.6758C187.464 27.1133 187.988 27.4277 188.607 27.6191C189.227 27.8014 189.847 27.8926 190.467 27.8926C191.715 27.8926 192.663 27.6237 193.311 27.0859C193.967 26.5391 194.295 25.9193 194.295 25.2266Z" fill="#333333"/>
<path fill-rule="evenodd" clip-rule="evenodd" d="M98.633 18.285C99.3099 18.434 99.9932 18.6438 100.683 18.9172C101.371 19.1905 101.994 19.5507 102.551 19.9963C103.107 20.4433 103.554 20.9886 103.892 21.6338C104.231 22.2802 104.4 23.0485 104.4 23.941C104.4 25.1083 104.171 26.0941 103.712 26.9012C103.251 27.707 102.653 28.3586 101.916 28.8548C101.178 29.3509 100.35 29.7111 99.4311 29.9339C98.5119 30.158 97.5926 30.2681 96.6746 30.2681C95.1984 30.2681 93.3638 29.9572 92.0526 29.2356C90.6189 28.4467 90.1058 27.9933 89.6094 27.4142C89.3799 27.146 89.318 26.7768 89.5578 26.5177L91.3035 24.0434C91.533 23.7946 91.9224 23.555 92.1995 23.7493C92.8184 24.1846 93.5546 24.7248 94.1322 25.0202C95.3144 25.6264 96.8048 25.8752 98.031 25.2611C98.5028 25.0266 98.7285 24.5629 98.7027 24.1898C98.6653 23.6211 98.4152 23.2842 97.835 23.0109C97.2548 22.7388 96.3484 22.4525 95.1146 22.1546C94.4854 22.0069 93.8563 21.8087 93.2284 21.56C92.5992 21.3112 92.0371 20.977 91.542 20.5547C91.0456 20.1336 90.6408 19.6116 90.3262 18.991C90.0116 18.3718 89.8543 17.6269 89.8543 16.7589C89.8543 15.6422 90.0838 14.6926 90.5441 13.9115C91.0031 13.129 91.5962 12.4916 92.322 11.9942C93.0466 11.498 93.8511 11.1327 94.733 10.8969C95.6161 10.6611 96.4928 10.5432 97.3631 10.5432C98.7181 10.5432 99.8914 10.7285 101.168 11.2648C102.257 11.7221 102.794 12.0214 103.588 12.6704C103.866 12.8984 103.892 13.3181 103.644 13.5811L101.836 16.0283C101.605 16.3275 101.249 16.3081 100.969 16.1475C100.51 15.8858 100.211 15.7096 99.7986 15.4945C99.377 15.2743 98.9257 15.1085 98.459 15.0204C97.5539 14.8494 96.743 14.8753 96.0339 15.2108C95.562 15.4349 95.3325 15.878 95.3325 16.4234C95.3325 16.9442 95.5916 17.3173 96.1125 17.5401C96.6321 17.7629 97.4727 18.0116 98.633 18.285ZM81.5604 32.4653C81.0576 33.7335 80.6089 34.4668 80.1164 35.1948C78.3901 37.7508 75.1566 38.3687 72.5716 37.8104C71.3596 37.4567 70.3888 37.0461 69.8911 36.4657C69.6617 36.1988 69.6011 35.8296 69.8396 35.5705L71.3648 32.8345C71.5943 32.5857 71.9836 32.3448 72.2596 32.5391C72.5393 32.736 73.1827 33.0301 73.6636 33.0301C74.3856 32.9886 75.2507 32.9537 76.1197 30.9496C76.4923 29.9689 76.4794 29.3108 75.9301 27.8676L69.3638 11.9942C69.1949 11.5874 69.4928 11.1379 69.9311 11.1379H75.1707C75.4338 11.1379 75.6684 11.3063 75.7535 11.5576L79.6368 23.0485H79.7464L83.2055 11.577C83.2842 11.3166 83.5227 11.1379 83.7934 11.1379H88.3743C88.8049 11.1379 89.1014 11.5718 88.948 11.9773L81.5604 32.4653ZM65.3787 28.8548C64.6412 29.3509 63.8122 29.7111 62.8942 29.9339C61.975 30.158 61.0557 30.2681 60.1365 30.2681C58.6615 30.2681 56.8269 29.9572 55.5157 29.2356C54.0807 28.4467 53.5689 27.9933 53.0725 27.4142C52.843 27.146 52.7811 26.7768 53.0196 26.5177L54.7666 24.0434C54.9961 23.7946 55.3855 23.555 55.6614 23.7493C56.2815 24.1846 57.0177 24.7248 57.594 25.0202C58.7776 25.6264 60.2667 25.8752 61.4941 25.2611C61.9659 25.0266 62.1916 24.5629 62.1658 24.1898C62.1284 23.6211 61.8783 23.2842 61.2981 23.0109C60.7179 22.7388 59.8103 22.4525 58.5777 22.1546C57.9486 22.0069 57.3194 21.8087 56.6915 21.56C56.0623 21.3112 55.5002 20.977 55.0051 20.5547C54.5088 20.1336 54.1039 19.6116 53.7893 18.991C53.4748 18.3718 53.3175 17.6269 53.3175 16.7589C53.3175 15.6422 53.547 14.6926 54.0072 13.9115C54.4662 13.129 55.0593 12.4916 55.7851 11.9942C56.5097 11.498 57.3129 11.1327 58.1961 10.8969C59.0793 10.6611 59.956 10.5432 60.8262 10.5432C62.18 10.5432 63.3545 10.7285 64.6309 11.2648C65.7203 11.7221 66.2567 12.0214 67.0509 12.6704C67.3281 12.8984 67.3551 13.3181 67.1076 13.5811L65.2987 16.0283C65.0667 16.3275 64.7121 16.3081 64.4323 16.1475C63.9734 15.8858 63.673 15.7096 63.2617 15.4945C62.8401 15.2743 62.3888 15.1085 61.9221 15.0204C61.017 14.8494 60.2061 14.8753 59.497 15.2108C59.0251 15.4349 58.7956 15.878 58.7956 16.4234C58.7956 16.9442 59.0548 17.3173 59.5743 17.5401C60.0952 17.7629 60.9358 18.0116 62.0962 18.285C62.773 18.434 63.4564 18.6438 64.1448 18.9172C64.8346 19.1905 65.4573 19.5507 66.0143 19.9963C66.57 20.4433 67.0161 20.9886 67.3551 21.6338C67.6942 22.2802 67.8631 23.0485 67.8631 23.941C67.8631 25.1083 67.6336 26.0941 67.1746 26.9012C66.7144 27.707 66.1161 28.3586 65.3787 28.8548ZM49.1479 29.6735H44.9359C44.5955 29.6735 44.3209 29.3963 44.3209 29.0556V27.7005H44.2126C43.7523 28.47 43.0574 29.0659 42.1265 29.487C41.1957 29.9093 40.1862 30.1204 39.098 30.1204C38.3721 30.1204 37.6218 30.0207 36.8482 29.8225C36.0746 29.6243 35.3668 29.3017 34.7261 28.8548C34.0853 28.4078 33.5593 27.8119 33.148 27.0683C32.7367 26.3234 32.5317 25.4062 32.5317 24.3141C32.5317 22.9746 32.8888 21.8942 33.6018 21.0754C34.3148 20.2567 35.234 19.6245 36.3596 19.1776C37.4838 18.7319 38.7344 18.434 40.1127 18.285C41.4909 18.136 42.833 18.0609 44.1391 18.0609V17.7629C44.1391 16.8457 43.8245 16.1695 43.1966 15.7342C42.5674 15.3015 41.7939 15.0839 40.8746 15.0839C40.0276 15.0839 39.2115 15.2691 38.4263 15.6422C37.8345 15.922 37.0132 16.3923 36.5517 16.7576C36.299 16.9571 35.938 16.9286 35.7214 16.689L33.9564 14.291C33.7217 14.032 33.7475 13.6291 34.0118 13.3998C34.9659 12.572 35.4893 12.0784 37.1202 11.3244C38.4895 10.6909 39.9799 10.5432 41.4548 10.5432C42.9787 10.5432 44.2667 10.735 45.3188 11.1197C46.3708 11.5045 47.223 12.1004 47.8754 12.9062C48.5291 13.7133 49.0061 14.7302 49.3091 15.9583C49.6108 17.1864 49.7616 18.6438 49.7616 20.3318V29.0556C49.7616 29.3963 49.487 29.6735 49.1479 29.6735ZM44.3209 21.9952C44.3209 21.775 44.143 21.5962 43.9251 21.5962H43.5589C42.9065 21.5962 42.2464 21.6286 41.5824 21.6895C40.9172 21.7517 40.3241 21.8709 39.8045 22.0432C39.2849 22.2181 38.8556 22.4707 38.5178 22.8062C38.1787 23.1417 38.0099 23.5822 38.0099 24.1276C38.0099 24.4761 38.0872 24.7727 38.2458 25.0215C38.4018 25.2689 38.6016 25.4684 38.844 25.6161C39.0851 25.7651 39.3636 25.8713 39.6782 25.9335C39.9915 25.9944 40.2945 26.0255 40.5845 26.0255C41.7939 26.0255 42.7183 25.6847 43.3591 25.002C43.9998 24.3206 44.3209 23.3956 44.3209 22.2297V21.9952ZM26.8937 27.5476C25.9744 28.4039 24.9108 29.0685 23.7014 29.5401C22.4921 30.0103 21.1989 30.2461 19.8194 30.2461C18.4657 30.2461 17.1777 30.0103 15.9567 29.5401C14.7358 29.0685 13.6721 28.4039 12.7645 27.5476C11.8581 26.6913 11.1387 25.6498 10.6062 24.4217C10.0737 23.1935 9.80816 21.8229 9.80816 20.3085C9.80816 18.7954 10.0737 17.4313 10.6062 16.2148C11.1387 14.9997 11.8581 13.9698 12.7645 13.1251C13.6721 12.2818 14.7358 11.6366 15.9567 11.1897C17.1777 10.744 18.4657 10.5199 19.8194 10.5199C21.1989 10.5199 22.4921 10.744 23.7014 11.1897C24.9108 11.6366 25.9744 12.2818 26.8937 13.1251C27.8117 13.9698 28.5375 14.9997 29.07 16.2148C29.6012 17.4313 29.8681 18.7954 29.8681 20.3085C29.8681 21.8229 29.6012 23.1935 29.07 24.4217C28.5375 25.6498 27.8117 26.6913 26.8937 27.5476ZM19.8375 15.5684C17.2228 15.5684 15.1032 17.7007 15.1032 20.3318C15.1032 22.5031 16.5575 24.3141 18.5314 24.888C18.9375 25.0202 19.3695 25.1096 19.8568 25.1096C20.4486 25.1096 20.9656 24.9917 21.4375 24.796C23.2618 24.1341 24.573 22.3942 24.573 20.3318C24.573 17.7007 22.4534 15.5684 19.8375 15.5684ZM2.88989 9.16874C1.48328 8.89928 0.333244 7.74113 0.0663636 6.32517C-0.411959 3.77697 1.76692 1.58503 4.29907 2.06695C5.70567 2.33511 6.857 3.49197 7.12517 4.90792C7.60865 7.45742 5.4259 9.65454 2.88989 9.16874ZM1.17901 11.1379H5.89906C6.23814 11.1379 6.51405 11.4151 6.51405 11.7571V29.0556C6.51405 29.3963 6.23814 29.6735 5.89906 29.6735H1.17901C0.839931 29.6735 0.564025 29.3963 0.564025 29.0556V11.7571C0.564025 11.4151 0.839931 11.1379 1.17901 11.1379Z" fill="#333333"/>
</svg>
