<svg width="32" height="32" viewBox="0 0 32 32" fill="none" xmlns="http://www.w3.org/2000/svg">
<circle r="16" transform="matrix(-1 0 0 1 16 16)" fill="white"/>
<circle r="15.5" transform="matrix(-1 0 0 1 16 16)" stroke="#333333" stroke-opacity="0.2"/>
<rect width="16" height="16" transform="translate(8 8)" fill="white"/>
<path d="M20.0354 12.5067L20.0707 12.4714L20.0354 12.436L19.564 11.9646L19.5286 11.9293L19.4933 11.9646L16 15.4579L12.5067 11.9646L12.4714 11.9293L12.436 11.9646L11.9646 12.436L11.9293 12.4714L11.9646 12.5067L15.4579 16L11.9646 19.4933L11.9293 19.5286L11.9646 19.564L12.436 20.0354L12.4714 20.0707L12.5067 20.0354L16 16.5421L19.4933 20.0354L19.5286 20.0707L19.564 20.0354L20.0354 19.564L20.0707 19.5286L20.0354 19.4933L16.5421 16L20.0354 12.5067Z" fill="#333333" stroke="#333333" stroke-width="0.1"/>
</svg>
