<svg width="20" height="18" viewBox="0 0 20 18" fill="none" xmlns="http://www.w3.org/2000/svg">
<path d="M19.2177 2.24102H7.30195C6.97435 1.37354 6.05405 0.746796 4.972 0.746796C3.88996 0.746796 2.96966 1.37354 2.64206 2.24102H0.782105C0.35004 2.24102 -0.000244141 2.55332 -0.000244141 2.93854C-0.000244141 3.32376 0.35004 3.63606 0.782105 3.63606H2.64212C2.96971 4.50354 3.89001 5.13029 4.97206 5.13029C6.0541 5.13029 6.9744 4.50354 7.302 3.63606H19.2178C19.6498 3.63606 20.0001 3.32376 20.0001 2.93854C20.0001 2.55332 19.6498 2.24102 19.2177 2.24102ZM4.972 3.73525C4.47928 3.73525 4.0784 3.37784 4.0784 2.93854C4.0784 2.49924 4.47928 2.14183 4.972 2.14183C5.46473 2.14183 5.8656 2.49924 5.8656 2.93854C5.8656 3.37784 5.46473 3.73525 4.972 3.73525Z" fill="#333333"/>
<path d="M19.2177 8.21819H17.3577C17.0301 7.3507 16.1097 6.72395 15.0278 6.72395C13.9458 6.72395 13.0255 7.3507 12.6979 8.21819H0.782105C0.35004 8.21819 -0.000244141 8.53049 -0.000244141 8.91571C-0.000244141 9.30093 0.35004 9.61324 0.782105 9.61324H12.6979C13.0255 10.4807 13.9458 11.1075 15.0278 11.1075C16.1098 11.1075 17.0301 10.4807 17.3577 9.61324H19.2178C19.6498 9.61324 20.0001 9.30093 20.0001 8.91571C20.0001 8.53049 19.6498 8.21819 19.2177 8.21819ZM15.0278 9.71242C14.5351 9.71242 14.1342 9.35501 14.1342 8.91571C14.1342 8.47641 14.5351 8.119 15.0278 8.119C15.5205 8.119 15.9214 8.47641 15.9214 8.91571C15.9214 9.35501 15.5205 9.71242 15.0278 9.71242Z" fill="#333333"/>
<path d="M19.2177 14.195H10.6539C10.3263 13.3275 9.406 12.7008 8.32395 12.7008C7.24191 12.7008 6.32161 13.3275 5.99401 14.195H0.782105C0.35004 14.195 -0.000244141 14.5073 -0.000244141 14.8925C-0.000244141 15.2778 0.35004 15.5901 0.782105 15.5901H5.99401C6.32161 16.4575 7.24191 17.0843 8.32395 17.0843C9.406 17.0843 10.3263 16.4575 10.6539 15.5901H19.2178C19.6498 15.5901 20.0001 15.2778 20.0001 14.8925C20.0001 14.5073 19.6498 14.195 19.2177 14.195ZM8.32395 15.6893C7.83123 15.6893 7.43035 15.3319 7.43035 14.8926C7.43035 14.4533 7.83123 14.0959 8.32395 14.0959C8.81668 14.0959 9.21755 14.4532 9.21755 14.8925C9.21755 15.3318 8.81668 15.6893 8.32395 15.6893Z" fill="#333333"/>
</svg>
