<svg width="18" height="18" viewBox="0 0 18 18" fill="none" xmlns="http://www.w3.org/2000/svg">
<path d="M6.50001 1.92307e-08C7.74356 -2.6747e-05 8.96103 0.356669 10.008 1.02777C11.0549 1.69886 11.8873 2.65619 12.4065 3.78618C12.9257 4.91616 13.1099 6.17136 12.9371 7.40286C12.7644 8.63435 12.242 9.79046 11.432 10.734L17.076 16.378L16.369 17.085L10.724 11.44C9.92789 12.1208 8.979 12.5991 7.95819 12.8342C6.93737 13.0693 5.87486 13.0542 4.86114 12.7901C3.84743 12.5261 2.91255 12.021 2.13612 11.3178C1.35969 10.6146 0.764725 9.73412 0.401886 8.75143C0.0390466 7.76874 -0.0809124 6.71291 0.0522255 5.67387C0.185363 4.63483 0.567654 3.64336 1.16654 2.7839C1.76542 1.92444 2.56315 1.22246 3.4918 0.73774C4.42044 0.253018 5.45248 -8.05521e-05 6.50001 1.92307e-08ZM6.50001 1C5.04132 1 3.64238 1.57946 2.61093 2.61091C1.57948 3.64236 1.00001 5.04131 1.00001 6.5C1.00001 7.95869 1.57948 9.35764 2.61093 10.3891C3.64238 11.4205 5.04132 12 6.50001 12C7.9587 12 9.35765 11.4205 10.3891 10.3891C11.4205 9.35764 12 7.95869 12 6.5C12 5.04131 11.4205 3.64236 10.3891 2.61091C9.35765 1.57946 7.9587 1 6.50001 1Z" fill="#333333"/>
</svg>
